<?xml version="1.0" encoding="UTF-8" standalone="no"?>
<!DOCTYPE svg PUBLIC "-//W3C//DTD SVG 1.1//EN"
 "http://www.w3.org/Graphics/SVG/1.1/DTD/svg11.dtd">
<!-- Generated by graphviz version 2.40.1 (20161225.0304)
 -->
<!-- Title: ClientState Pages: 1 -->
<svg width="735pt" height="664pt"
 viewBox="0.00 0.00 734.76 663.61" xmlns="http://www.w3.org/2000/svg" xmlns:xlink="http://www.w3.org/1999/xlink">
<g id="graph0" class="graph" transform="scale(1 1) rotate(0) translate(4 659.6073)">
<title>ClientState</title>
<polygon fill="#ffffff" stroke="transparent" points="-4,4 -4,-659.6073 730.76,-659.6073 730.76,4 -4,4"/>
<text text-anchor="middle" x="363.38" y="-639.0073" font-family="Times,serif" font-size="14.00" fill="#000000">ClientState 遷移図 (2021年11月12日)</text>
<!-- TitleScreen -->
<g id="node1" class="node">
<title>TitleScreen</title>
<ellipse fill="#17a6ff" stroke="#000000" cx="273.9928" cy="-612.8073" rx="55.5908" ry="18"/>
<text text-anchor="middle" x="273.9928" y="-608.6073" font-family="HackGen, Consolas, monospace" font-size="14.00" fill="#ffffff">TitleScreen</text>
</g>
<!-- SettingConnection -->
<g id="node2" class="node">
<title>SettingConnection</title>
<ellipse fill="#cfecff" stroke="#000000" cx="83.9928" cy="-509.8037" rx="82.8457" ry="18"/>
<text text-anchor="middle" x="83.9928" y="-505.6037" font-family="HackGen, Consolas, monospace" font-size="14.00" fill="#000000">SettingConnection</text>
</g>
<!-- TitleScreen&#45;&gt;SettingConnection -->
<g id="edge1" class="edge">
<title>TitleScreen&#45;&gt;SettingConnection</title>
<path fill="none" stroke="#000000" d="M220.4075,-607.9779C156.6704,-601.6816 57.4256,-589.9145 46.2274,-576.8073 35.4963,-564.2469 43.9578,-548.1777 55.5674,-534.9247"/>
<polygon fill="#000000" stroke="#000000" points="58.2821,-537.1493 62.6455,-527.4947 53.2138,-532.321 58.2821,-537.1493"/>
<text text-anchor="middle" x="93.3755" y="-564.2073" font-family="Times,serif" font-size="14.00" fill="#000000">スペースキー</text>
</g>
<!-- SettingConnection&#45;&gt;TitleScreen -->
<g id="edge2" class="edge">
<title>SettingConnection&#45;&gt;TitleScreen</title>
<path fill="none" stroke="#000000" d="M102.8004,-527.4102C121.6599,-544.7815 149.6638,-569.7345 162.3156,-576.8073 179.6486,-586.4971 199.9741,-594.0273 218.4999,-599.6376"/>
<polygon fill="#000000" stroke="#000000" points="217.707,-603.0519 228.2863,-602.4779 219.6581,-596.3293 217.707,-603.0519"/>
<text text-anchor="middle" x="188.3314" y="-564.2073" font-family="Times,serif" font-size="14.00" fill="#000000">接続失敗</text>
</g>
<!-- WaitingSettingUid -->
<g id="node3" class="node">
<title>WaitingSettingUid</title>
<ellipse fill="#cfecff" stroke="#000000" cx="83.9928" cy="-406.8" rx="83.9856" ry="18"/>
<text text-anchor="middle" x="83.9928" y="-402.6" font-family="HackGen, Consolas, monospace" font-size="14.00" fill="#000000">WaitingSettingUid</text>
</g>
<!-- SettingConnection&#45;&gt;WaitingSettingUid -->
<g id="edge3" class="edge">
<title>SettingConnection&#45;&gt;WaitingSettingUid</title>
<path fill="none" stroke="#000000" d="M83.9928,-491.3887C83.9928,-475.7892 83.9928,-453.1667 83.9928,-435.2412"/>
<polygon fill="#000000" stroke="#000000" points="87.4929,-435.0555 83.9928,-425.0556 80.4929,-435.0556 87.4929,-435.0555"/>
<text text-anchor="middle" x="140.7558" y="-447" font-family="Times,serif" font-size="14.00" fill="#000000">connect &amp; setup&#45;uid</text>
</g>
<!-- JoiningRoom -->
<g id="node4" class="node">
<title>JoiningRoom</title>
<ellipse fill="#cfecff" stroke="#000000" cx="226.9928" cy="-301.2" rx="63.1653" ry="18"/>
<text text-anchor="middle" x="226.9928" y="-297" font-family="HackGen, Consolas, monospace" font-size="14.00" fill="#000000">JoiningRoom</text>
</g>
<!-- WaitingSettingUid&#45;&gt;JoiningRoom -->
<g id="edge4" class="edge">
<title>WaitingSettingUid&#45;&gt;JoiningRoom</title>
<path fill="none" stroke="#000000" d="M78.6264,-388.8201C75.2255,-373.4657 73.3467,-351.6356 84.7038,-337.2 94.3358,-324.9571 127.2246,-316.1968 158.9578,-310.3853"/>
<polygon fill="#000000" stroke="#000000" points="159.939,-313.7671 169.1892,-308.6014 158.7366,-306.8711 159.939,-313.7671"/>
<text text-anchor="middle" x="149.1373" y="-349.8" font-family="Times,serif" font-size="14.00" fill="#000000">ApiEvent::UpdateUser</text>
</g>
<!-- JoiningRoom&#45;&gt;TitleScreen -->
<g id="edge6" class="edge">
<title>JoiningRoom&#45;&gt;TitleScreen</title>
<path fill="none" stroke="#000000" d="M225.3768,-319.3839C223.1254,-348.9709 220.1136,-409.2878 227.6632,-459.6 234.4429,-504.7816 251.624,-555.1224 263.0496,-585.3591"/>
<polygon fill="#000000" stroke="#000000" points="259.8258,-586.7274 266.6804,-594.8061 266.3599,-584.2161 259.8258,-586.7274"/>
<text text-anchor="middle" x="267.6576" y="-447" font-family="Times,serif" font-size="14.00" fill="#000000">join&#45;room失敗</text>
</g>
<!-- WaitingInRoom -->
<g id="node5" class="node">
<title>WaitingInRoom</title>
<ellipse fill="#cfecff" stroke="#000000" cx="261.9928" cy="-212.4" rx="73.5984" ry="18"/>
<text text-anchor="middle" x="261.9928" y="-208.2" font-family="HackGen, Consolas, monospace" font-size="14.00" fill="#000000">WaitingInRoom</text>
</g>
<!-- JoiningRoom&#45;&gt;WaitingInRoom -->
<g id="edge5" class="edge">
<title>JoiningRoom&#45;&gt;WaitingInRoom</title>
<path fill="none" stroke="#000000" d="M225.1313,-282.9466C224.7613,-272.4622 225.5131,-259.2622 229.9998,-248.4 231.536,-244.6809 233.6253,-241.0878 236.0053,-237.7049"/>
<polygon fill="#000000" stroke="#000000" points="238.8396,-239.7652 242.3713,-229.7764 233.3813,-235.3826 238.8396,-239.7652"/>
<text text-anchor="middle" x="269.4893" y="-252.6" font-family="Times,serif" font-size="14.00" fill="#000000">join&#45;room成功</text>
</g>
<!-- WaitingInRoom&#45;&gt;TitleScreen -->
<g id="edge13" class="edge">
<title>WaitingInRoom&#45;&gt;TitleScreen</title>
<path fill="none" stroke="#000000" d="M288.9542,-229.4053C295.6746,-234.7638 302.2946,-241.1917 306.9928,-248.4 320.2491,-268.7389 320.9928,-276.9224 320.9928,-301.2 320.9928,-509.8037 320.9928,-509.8037 320.9928,-509.8037 320.9928,-537.929 306.3099,-566.7927 293.3575,-586.783"/>
<polygon fill="#000000" stroke="#000000" points="290.2937,-585.0655 287.5871,-595.3088 296.0908,-588.9891 290.2937,-585.0655"/>
<text text-anchor="middle" x="380.8764" y="-411" font-family="Times,serif" font-size="14.00" fill="#000000">ApiEvent::</text>
<text text-anchor="middle" x="380.8764" y="-394.2" font-family="Times,serif" font-size="14.00" fill="#000000">RoomStateNotJoined</text>
</g>
<!-- Playing -->
<g id="node6" class="node">
<title>Playing</title>
<ellipse fill="#cfecff" stroke="#000000" cx="389.9928" cy="-106.8" rx="40.5886" ry="18"/>
<text text-anchor="middle" x="389.9928" y="-102.6" font-family="HackGen, Consolas, monospace" font-size="14.00" fill="#000000">Playing</text>
</g>
<!-- WaitingInRoom&#45;&gt;Playing -->
<g id="edge7" class="edge">
<title>WaitingInRoom&#45;&gt;Playing</title>
<path fill="none" stroke="#000000" d="M262.9661,-194.3998C264.7453,-178.8188 269.6629,-156.6664 283.1162,-142.8 283.4262,-142.4804 317.9306,-130.8876 347.6472,-120.9434"/>
<polygon fill="#000000" stroke="#000000" points="349.1118,-124.1442 357.4851,-117.6529 346.8913,-117.5057 349.1118,-124.1442"/>
<text text-anchor="middle" x="369.9311" y="-163.8" font-family="Times,serif" font-size="14.00" fill="#000000">ApiEvent::RoomStateFulfilled</text>
<text text-anchor="middle" x="369.9311" y="-147" font-family="Times,serif" font-size="14.00" fill="#000000">{should_start=true}</text>
</g>
<!-- Playing&#45;&gt;TitleScreen -->
<g id="edge14" class="edge">
<title>Playing&#45;&gt;TitleScreen</title>
<path fill="none" stroke="#000000" d="M422.1349,-117.8697C434.1486,-123.5446 446.8414,-131.6612 454.9928,-142.8 473.6267,-168.263 468.9928,-180.8471 468.9928,-212.4 468.9928,-509.8037 468.9928,-509.8037 468.9928,-509.8037 468.9928,-570.4825 394.2572,-595.5084 337.3205,-605.7697"/>
<polygon fill="#000000" stroke="#000000" points="336.5564,-602.349 327.2774,-607.4628 337.7201,-609.2516 336.5564,-602.349"/>
<text text-anchor="middle" x="528.8764" y="-358.2" font-family="Times,serif" font-size="14.00" fill="#000000">ApiEvent::</text>
<text text-anchor="middle" x="528.8764" y="-341.4" font-family="Times,serif" font-size="14.00" fill="#000000">RoomStateNotJoined</text>
</g>
<!-- Playing&#45;&gt;Playing -->
<g id="edge8" class="edge">
<title>Playing&#45;&gt;Playing</title>
<path fill="none" stroke="#000000" d="M426.2967,-115.0495C438.6266,-115.0928 448.5371,-112.343 448.5371,-106.8 448.5371,-102.9026 443.6375,-100.3861 436.4423,-99.2505"/>
<polygon fill="#000000" stroke="#000000" points="436.5139,-95.7472 426.2967,-98.5505 436.032,-102.7306 436.5139,-95.7472"/>
<text text-anchor="middle" x="513.8576" y="-102.6" font-family="Times,serif" font-size="14.00" fill="#000000">ApiEvent::UpdateField</text>
</g>
<!-- GameFinished -->
<g id="node7" class="node">
<title>GameFinished</title>
<ellipse fill="#cfecff" stroke="#000000" cx="389.9928" cy="-18" rx="101.6528" ry="18"/>
<text text-anchor="middle" x="389.9928" y="-13.8" font-family="HackGen, Consolas, monospace" font-size="14.00" fill="#000000">GameFinished{reason}</text>
</g>
<!-- Playing&#45;&gt;GameFinished -->
<g id="edge9" class="edge">
<title>Playing&#45;&gt;GameFinished</title>
<path fill="none" stroke="#000000" d="M389.9928,-88.4006C389.9928,-76.2949 389.9928,-60.2076 389.9928,-46.4674"/>
<polygon fill="#000000" stroke="#000000" points="393.4929,-46.072 389.9928,-36.072 386.4929,-46.0721 393.4929,-46.072"/>
<text text-anchor="middle" x="461.5356" y="-58.2" font-family="Times,serif" font-size="14.00" fill="#000000">ApiEvent::GameFinished</text>
</g>
<!-- GameFinished&#45;&gt;TitleScreen -->
<g id="edge12" class="edge">
<title>GameFinished&#45;&gt;TitleScreen</title>
<path fill="none" stroke="#000000" d="M463.4844,-30.5703C487.5245,-36.0959 513.9557,-43.7267 536.9928,-54 566.1399,-66.998 606.9928,-91.886 606.9928,-106.8 606.9928,-509.8037 606.9928,-509.8037 606.9928,-509.8037 606.9928,-565.6933 433.6284,-594.5553 337.0768,-606.2956"/>
<polygon fill="#000000" stroke="#000000" points="336.6429,-602.8224 327.1258,-607.4781 337.469,-609.7735 336.6429,-602.8224"/>
<text text-anchor="middle" x="666.8764" y="-305.4" font-family="Times,serif" font-size="14.00" fill="#000000">ApiEvent::</text>
<text text-anchor="middle" x="666.8764" y="-288.6" font-family="Times,serif" font-size="14.00" fill="#000000">RoomStateNotJoined</text>
</g>
<!-- GameFinished&#45;&gt;WaitingInRoom -->
<g id="edge10" class="edge">
<title>GameFinished&#45;&gt;WaitingInRoom</title>
<path fill="none" stroke="#000000" d="M328.2188,-32.3112C298.2768,-42.6933 265.0191,-60.1173 247.2274,-88.8 229.1464,-117.949 239.1622,-158.4661 249.3848,-185.0493"/>
<polygon fill="#000000" stroke="#000000" points="246.227,-186.574 253.2547,-194.5026 252.7052,-183.922 246.227,-186.574"/>
<text text-anchor="middle" x="294.3755" y="-102.6" font-family="Times,serif" font-size="14.00" fill="#000000">スペースキー</text>
</g>
<!-- GameFinished&#45;&gt;GameFinished -->
<g id="edge11" class="edge">
<title>GameFinished&#45;&gt;GameFinished</title>
<path fill="none" stroke="#000000" d="M481.9307,-25.7661C498.3501,-24.7567 509.8191,-22.168 509.8191,-18 509.8191,-14.7438 502.819,-12.4515 491.927,-11.1231"/>
<polygon fill="#000000" stroke="#000000" points="492.2015,-7.6337 481.9307,-10.2339 491.5812,-14.6062 492.2015,-7.6337"/>
<text text-anchor="middle" x="605.976" y="-13.8" font-family="Times,serif" font-size="14.00" fill="#000000">ApiEvent::RoomStateFulfilled{..}</text>
</g>
<!-- Quit -->
<g id="node8" class="node">
<title>Quit</title>
<ellipse fill="#17a6ff" stroke="#000000" cx="666.9928" cy="-509.8037" rx="28.3832" ry="28.3832"/>
<ellipse fill="none" stroke="#000000" cx="666.9928" cy="-509.8037" rx="32.4086" ry="32.4086"/>
<text text-anchor="middle" x="666.9928" y="-505.6037" font-family="HackGen, Consolas, monospace" font-size="14.00" fill="#ffffff">Quit</text>
</g>
<!-- any -->
<g id="node9" class="node">
<title>any</title>
<ellipse fill="#cfecff" stroke="#000000" cx="666.9928" cy="-612.8073" rx="27" ry="18"/>
<text text-anchor="middle" x="666.9928" y="-608.6073" font-family="HackGen, Consolas, monospace" font-size="14.00" fill="#000000">*</text>
</g>
<!-- any&#45;&gt;Quit -->
<g id="edge15" class="edge">
<title>any&#45;&gt;Quit</title>
<path fill="none" stroke="#000000" d="M666.9928,-594.3923C666.9928,-582.7513 666.9928,-567.1992 666.9928,-552.6066"/>
<polygon fill="#000000" stroke="#000000" points="670.4929,-552.2201 666.9928,-542.2202 663.4929,-552.2202 670.4929,-552.2201"/>
<text text-anchor="middle" x="690.7753" y="-564.2073" font-family="Times,serif" font-size="14.00" fill="#000000">Alt + F4</text>
</g>
</g>
</svg>
