<?xml version="1.0" encoding="UTF-8" standalone="no"?>
<!DOCTYPE svg PUBLIC "-//W3C//DTD SVG 1.1//EN"
 "http://www.w3.org/Graphics/SVG/1.1/DTD/svg11.dtd">
<!-- Generated by graphviz version 2.40.1 (20161225.0304)
 -->
<!-- Title: ClientState Pages: 1 -->
<svg width="855pt" height="630pt"
 viewBox="0.00 0.00 854.97 630.01" xmlns="http://www.w3.org/2000/svg" xmlns:xlink="http://www.w3.org/1999/xlink">
<g id="graph0" class="graph" transform="scale(1 1) rotate(0) translate(4 626.0073)">
<title>ClientState</title>
<polygon fill="#ffffff" stroke="transparent" points="-4,4 -4,-626.0073 850.9738,-626.0073 850.9738,4 -4,4"/>
<text text-anchor="middle" x="423.4869" y="-605.4073" font-family="Times,serif" font-size="14.00" fill="#000000">ClientState 遷移図 (2021年11月8日)</text>
<!-- TitleScreen -->
<g id="node1" class="node">
<title>TitleScreen</title>
<ellipse fill="#17a6ff" stroke="#000000" cx="427.35" cy="-579.2073" rx="55.5908" ry="18"/>
<text text-anchor="middle" x="427.35" y="-575.0073" font-family="HackGen, Consolas, monospace" font-size="14.00" fill="#ffffff">TitleScreen</text>
</g>
<!-- SettingConnection -->
<g id="node2" class="node">
<title>SettingConnection</title>
<ellipse fill="#cfecff" stroke="#000000" cx="311.35" cy="-476.2037" rx="82.8457" ry="18"/>
<text text-anchor="middle" x="311.35" y="-472.0037" font-family="HackGen, Consolas, monospace" font-size="14.00" fill="#000000">SettingConnection</text>
</g>
<!-- TitleScreen&#45;&gt;SettingConnection -->
<g id="edge1" class="edge">
<title>TitleScreen&#45;&gt;SettingConnection</title>
<path fill="none" stroke="#000000" d="M379.4017,-570.0317C351.7891,-563.6761 320.938,-554.3655 312.5846,-543.2073 304.3869,-532.2571 303.4585,-517.2326 304.8515,-504.1856"/>
<polygon fill="#000000" stroke="#000000" points="308.3171,-504.6765 306.3718,-494.2618 301.3978,-503.6164 308.3171,-504.6765"/>
<text text-anchor="middle" x="359.7327" y="-530.6073" font-family="Times,serif" font-size="14.00" fill="#000000">スペースキー</text>
</g>
<!-- SettingConnection&#45;&gt;TitleScreen -->
<g id="edge2" class="edge">
<title>SettingConnection&#45;&gt;TitleScreen</title>
<path fill="none" stroke="#000000" d="M354.3671,-491.648C372.0338,-499.7505 391.5402,-511.2077 405.35,-526.4073 411.7545,-533.4564 416.448,-542.6343 419.8137,-551.3567"/>
<polygon fill="#000000" stroke="#000000" points="416.5209,-552.5448 423.0698,-560.8732 423.144,-550.2786 416.5209,-552.5448"/>
<text text-anchor="middle" x="441.6886" y="-530.6073" font-family="Times,serif" font-size="14.00" fill="#000000">接続失敗</text>
</g>
<!-- WaitingSettingUid -->
<g id="node3" class="node">
<title>WaitingSettingUid</title>
<ellipse fill="#cfecff" stroke="#000000" cx="198.35" cy="-373.2" rx="83.9856" ry="18"/>
<text text-anchor="middle" x="198.35" y="-369" font-family="HackGen, Consolas, monospace" font-size="14.00" fill="#000000">WaitingSettingUid</text>
</g>
<!-- SettingConnection&#45;&gt;WaitingSettingUid -->
<g id="edge3" class="edge">
<title>SettingConnection&#45;&gt;WaitingSettingUid</title>
<path fill="none" stroke="#000000" d="M291.9246,-458.4967C273.5717,-441.7674 245.8745,-416.5203 225.3714,-397.831"/>
<polygon fill="#000000" stroke="#000000" points="227.6483,-395.1706 217.9001,-391.0206 222.9327,-400.3439 227.6483,-395.1706"/>
<text text-anchor="middle" x="312.113" y="-413.4" font-family="Times,serif" font-size="14.00" fill="#000000">connect &amp; setup&#45;uid</text>
</g>
<!-- JoiningRoom0 -->
<g id="node4" class="node">
<title>JoiningRoom0</title>
<ellipse fill="#cfecff" stroke="#000000" cx="130.35" cy="-284.4" rx="130.2002" ry="18"/>
<text text-anchor="middle" x="130.35" y="-280.2" font-family="HackGen, Consolas, monospace" font-size="14.00" fill="#000000">JoiningRoom{wait_frames=0}</text>
</g>
<!-- WaitingSettingUid&#45;&gt;JoiningRoom0 -->
<g id="edge4" class="edge">
<title>WaitingSettingUid&#45;&gt;JoiningRoom0</title>
<path fill="none" stroke="#000000" d="M184.5892,-355.23C174.727,-342.3512 161.2929,-324.8078 150.2622,-310.403"/>
<polygon fill="#000000" stroke="#000000" points="152.949,-308.1549 144.0903,-302.3433 147.3914,-312.4108 152.949,-308.1549"/>
<text text-anchor="middle" x="235.4945" y="-324.6" font-family="Times,serif" font-size="14.00" fill="#000000">ApiEvent::UpdateUser</text>
</g>
<!-- JoiningRoomN -->
<g id="node5" class="node">
<title>JoiningRoomN</title>
<ellipse fill="#cfecff" stroke="#000000" cx="507.35" cy="-284.4" rx="130.2002" ry="18"/>
<text text-anchor="middle" x="507.35" y="-280.2" font-family="HackGen, Consolas, monospace" font-size="14.00" fill="#000000">JoiningRoom{wait_frames&gt;0}</text>
</g>
<!-- JoiningRoom0&#45;&gt;JoiningRoomN -->
<g id="edge6" class="edge">
<title>JoiningRoom0&#45;&gt;JoiningRoomN</title>
<path fill="none" stroke="#000000" d="M215.4586,-270.6906C234.5857,-268.1564 254.8233,-265.9007 273.7539,-264.6 313.745,-261.8522 323.955,-261.8522 363.9461,-264.6 379.623,-265.6772 396.1962,-267.4092 412.2928,-269.412"/>
<polygon fill="#000000" stroke="#000000" points="411.8768,-272.8873 422.2414,-270.6906 412.7691,-265.9444 411.8768,-272.8873"/>
<text text-anchor="middle" x="318.85" y="-268.8" font-family="Times,serif" font-size="14.00" fill="#000000">join&#45;roomが失敗</text>
</g>
<!-- WaitingInRoom -->
<g id="node6" class="node">
<title>WaitingInRoom</title>
<ellipse fill="#cfecff" stroke="#000000" cx="314.35" cy="-195.6" rx="73.5984" ry="18"/>
<text text-anchor="middle" x="314.35" y="-191.4" font-family="HackGen, Consolas, monospace" font-size="14.00" fill="#000000">WaitingInRoom</text>
</g>
<!-- JoiningRoom0&#45;&gt;WaitingInRoom -->
<g id="edge5" class="edge">
<title>JoiningRoom0&#45;&gt;WaitingInRoom</title>
<path fill="none" stroke="#000000" d="M166.2638,-267.0677C196.5338,-252.4591 239.9027,-231.5289 271.8882,-216.0924"/>
<polygon fill="#000000" stroke="#000000" points="273.5192,-219.1916 281.004,-211.6931 270.4767,-212.8874 273.5192,-219.1916"/>
<text text-anchor="middle" x="283.2778" y="-235.8" font-family="Times,serif" font-size="14.00" fill="#000000">join&#45;roomが成功</text>
</g>
<!-- JoiningRoomN&#45;&gt;JoiningRoom0 -->
<g id="edge7" class="edge">
<title>JoiningRoomN&#45;&gt;JoiningRoom0</title>
<path fill="none" stroke="#000000" d="M376.9287,-284.4C342.758,-284.4 305.7654,-284.4 271.0825,-284.4"/>
<polygon fill="#000000" stroke="#000000" points="270.8841,-280.9001 260.884,-284.4 270.884,-287.9001 270.8841,-280.9001"/>
<text text-anchor="middle" x="318.85" y="-291.6" font-family="Times,serif" font-size="14.00" fill="#000000">wait_frames == 0</text>
</g>
<!-- JoiningRoomN&#45;&gt;JoiningRoomN -->
<g id="edge8" class="edge">
<title>JoiningRoomN:s&#45;&gt;JoiningRoomN:s</title>
<path fill="none" stroke="#000000" d="M507.35,-266.4C516.35,-259.0667 516.35,-244.4 507.35,-244.4 501.1625,-244.4 499.2289,-251.3323 501.5492,-258.0479"/>
<polygon fill="#000000" stroke="#000000" points="498.7708,-260.1832 507.35,-266.4 504.5202,-256.1901 498.7708,-260.1832"/>
<text text-anchor="middle" x="507.35" y="-231.8" font-family="Times,serif" font-size="14.00" fill="#000000">wait_framesが0でない間</text>
<text text-anchor="middle" x="507.35" y="-215" font-family="Times,serif" font-size="14.00" fill="#000000">wait_frames&#45;&#45;</text>
</g>
<!-- Playing -->
<g id="node7" class="node">
<title>Playing</title>
<ellipse fill="#cfecff" stroke="#000000" cx="436.35" cy="-106.8" rx="40.5886" ry="18"/>
<text text-anchor="middle" x="436.35" y="-102.6" font-family="HackGen, Consolas, monospace" font-size="14.00" fill="#000000">Playing</text>
</g>
<!-- WaitingInRoom&#45;&gt;Playing -->
<g id="edge9" class="edge">
<title>WaitingInRoom&#45;&gt;Playing</title>
<path fill="none" stroke="#000000" d="M337.8728,-178.4785C357.4688,-164.2152 385.4894,-143.8199 406.634,-128.4294"/>
<polygon fill="#000000" stroke="#000000" points="408.9168,-131.0968 414.9421,-122.3821 404.7973,-125.4372 408.9168,-131.0968"/>
<text text-anchor="middle" x="472.2883" y="-147" font-family="Times,serif" font-size="14.00" fill="#000000">ApiEvent::RoomStateFulfilled</text>
</g>
<!-- Playing&#45;&gt;Playing -->
<g id="edge10" class="edge">
<title>Playing&#45;&gt;Playing</title>
<path fill="none" stroke="#000000" d="M472.6539,-115.0495C484.9838,-115.0928 494.8943,-112.343 494.8943,-106.8 494.8943,-102.9026 489.9947,-100.3861 482.7995,-99.2505"/>
<polygon fill="#000000" stroke="#000000" points="482.8711,-95.7472 472.6539,-98.5505 482.3892,-102.7306 482.8711,-95.7472"/>
<text text-anchor="middle" x="560.2148" y="-102.6" font-family="Times,serif" font-size="14.00" fill="#000000">ApiEvent::UpdateField</text>
</g>
<!-- GameFinished -->
<g id="node8" class="node">
<title>GameFinished</title>
<ellipse fill="#cfecff" stroke="#000000" cx="514.35" cy="-18" rx="101.6528" ry="18"/>
<text text-anchor="middle" x="514.35" y="-13.8" font-family="HackGen, Consolas, monospace" font-size="14.00" fill="#000000">GameFinished{reason}</text>
</g>
<!-- Playing&#45;&gt;GameFinished -->
<g id="edge11" class="edge">
<title>Playing&#45;&gt;GameFinished</title>
<path fill="none" stroke="#000000" d="M451.3892,-89.6785C462.819,-76.6661 478.7316,-58.5501 491.6995,-43.7867"/>
<polygon fill="#000000" stroke="#000000" points="494.584,-45.8064 498.5538,-35.9834 489.3247,-41.1868 494.584,-45.8064"/>
<text text-anchor="middle" x="553.8928" y="-58.2" font-family="Times,serif" font-size="14.00" fill="#000000">ApiEvent::GameFinished</text>
</g>
<!-- GameFinished&#45;&gt;TitleScreen -->
<g id="edge12" class="edge">
<title>GameFinished:e&#45;&gt;TitleScreen</title>
<path fill="none" stroke="#000000" d="M616.35,-18C663.2477,-18 673.35,-59.9023 673.35,-106.8 673.35,-476.2037 673.35,-476.2037 673.35,-476.2037 673.35,-516.9424 557.112,-550.3444 484.4389,-567.2466"/>
<polygon fill="#000000" stroke="#000000" points="483.4586,-563.8803 474.4902,-569.5211 485.0188,-570.7042 483.4586,-563.8803"/>
<text text-anchor="middle" x="760.1619" y="-280.2" font-family="Times,serif" font-size="14.00" fill="#000000">勝敗を(コンソールに)表示</text>
</g>
<!-- Quit -->
<g id="node9" class="node">
<title>Quit</title>
<ellipse fill="#17a6ff" stroke="#000000" cx="733.35" cy="-476.2037" rx="28.3832" ry="28.3832"/>
<ellipse fill="none" stroke="#000000" cx="733.35" cy="-476.2037" rx="32.4086" ry="32.4086"/>
<text text-anchor="middle" x="733.35" y="-472.0037" font-family="HackGen, Consolas, monospace" font-size="14.00" fill="#ffffff">Quit</text>
</g>
<!-- any -->
<g id="node10" class="node">
<title>any</title>
<ellipse fill="#cfecff" stroke="#000000" cx="733.35" cy="-579.2073" rx="27" ry="18"/>
<text text-anchor="middle" x="733.35" y="-575.0073" font-family="HackGen, Consolas, monospace" font-size="14.00" fill="#000000">*</text>
</g>
<!-- any&#45;&gt;Quit -->
<g id="edge13" class="edge">
<title>any&#45;&gt;Quit</title>
<path fill="none" stroke="#000000" d="M733.35,-560.7923C733.35,-549.1513 733.35,-533.5992 733.35,-519.0066"/>
<polygon fill="#000000" stroke="#000000" points="736.8501,-518.6201 733.35,-508.6202 729.8501,-518.6202 736.8501,-518.6201"/>
<text text-anchor="middle" x="757.1325" y="-530.6073" font-family="Times,serif" font-size="14.00" fill="#000000">Alt + F4</text>
</g>
</g>
</svg>
