<?xml version="1.0" encoding="UTF-8" standalone="no"?>
<!DOCTYPE svg PUBLIC "-//W3C//DTD SVG 1.1//EN"
 "http://www.w3.org/Graphics/SVG/1.1/DTD/svg11.dtd">
<!-- Generated by graphviz version 2.40.1 (20161225.0304)
 -->
<!-- Title: ClientState Pages: 1 -->
<svg width="476pt" height="647pt"
 viewBox="0.00 0.00 476.13 646.81" xmlns="http://www.w3.org/2000/svg" xmlns:xlink="http://www.w3.org/1999/xlink">
<g id="graph0" class="graph" transform="scale(1 1) rotate(0) translate(4 642.8073)">
<title>ClientState</title>
<polygon fill="#ffffff" stroke="transparent" points="-4,4 -4,-642.8073 472.1329,-642.8073 472.1329,4 -4,4"/>
<text text-anchor="middle" x="234.0664" y="-622.2073" font-family="Times,serif" font-size="14.00" fill="#000000">ClientState 遷移図 (2021年11月12日)</text>
<!-- TitleScreen -->
<g id="node1" class="node">
<title>TitleScreen</title>
<ellipse fill="#17a6ff" stroke="#000000" cx="160.9928" cy="-596.0073" rx="55.5908" ry="18"/>
<text text-anchor="middle" x="160.9928" y="-591.8073" font-family="HackGen, Consolas, monospace" font-size="14.00" fill="#ffffff">TitleScreen</text>
</g>
<!-- SettingConnection -->
<g id="node2" class="node">
<title>SettingConnection</title>
<ellipse fill="#cfecff" stroke="#000000" cx="83.9928" cy="-493.0037" rx="82.8457" ry="18"/>
<text text-anchor="middle" x="83.9928" y="-488.8037" font-family="HackGen, Consolas, monospace" font-size="14.00" fill="#000000">SettingConnection</text>
</g>
<!-- TitleScreen&#45;&gt;SettingConnection -->
<g id="edge1" class="edge">
<title>TitleScreen&#45;&gt;SettingConnection</title>
<path fill="none" stroke="#000000" d="M112.9737,-586.8842C85.3332,-580.5493 54.4777,-571.242 46.2274,-560.0073 36.5151,-546.7818 44.8284,-530.8147 56.1001,-517.7853"/>
<polygon fill="#000000" stroke="#000000" points="58.6567,-520.1757 62.9646,-510.4962 53.5608,-515.3766 58.6567,-520.1757"/>
<text text-anchor="middle" x="93.3755" y="-547.4073" font-family="Times,serif" font-size="14.00" fill="#000000">スペースキー</text>
</g>
<!-- SettingConnection&#45;&gt;TitleScreen -->
<g id="edge2" class="edge">
<title>SettingConnection&#45;&gt;TitleScreen</title>
<path fill="none" stroke="#000000" d="M107.3335,-510.3899C118.0559,-519.2844 130.2919,-530.8341 138.9928,-543.2073 144.3302,-550.7974 148.7022,-559.8808 152.1025,-568.3562"/>
<polygon fill="#000000" stroke="#000000" points="148.8845,-569.7449 155.6474,-577.9005 155.4465,-567.3076 148.8845,-569.7449"/>
<text text-anchor="middle" x="174.3314" y="-547.4073" font-family="Times,serif" font-size="14.00" fill="#000000">接続失敗</text>
</g>
<!-- WaitingSettingUid -->
<g id="node3" class="node">
<title>WaitingSettingUid</title>
<ellipse fill="#cfecff" stroke="#000000" cx="83.9928" cy="-390" rx="83.9856" ry="18"/>
<text text-anchor="middle" x="83.9928" y="-385.8" font-family="HackGen, Consolas, monospace" font-size="14.00" fill="#000000">WaitingSettingUid</text>
</g>
<!-- SettingConnection&#45;&gt;WaitingSettingUid -->
<g id="edge3" class="edge">
<title>SettingConnection&#45;&gt;WaitingSettingUid</title>
<path fill="none" stroke="#000000" d="M83.9928,-474.5887C83.9928,-458.9892 83.9928,-436.3667 83.9928,-418.4412"/>
<polygon fill="#000000" stroke="#000000" points="87.4929,-418.2555 83.9928,-408.2556 80.4929,-418.2556 87.4929,-418.2555"/>
<text text-anchor="middle" x="140.7558" y="-430.2" font-family="Times,serif" font-size="14.00" fill="#000000">connect &amp; setup&#45;uid</text>
</g>
<!-- JoiningRoom -->
<g id="node4" class="node">
<title>JoiningRoom</title>
<ellipse fill="#cfecff" stroke="#000000" cx="154.9928" cy="-301.2" rx="63.1653" ry="18"/>
<text text-anchor="middle" x="154.9928" y="-297" font-family="HackGen, Consolas, monospace" font-size="14.00" fill="#000000">JoiningRoom</text>
</g>
<!-- WaitingSettingUid&#45;&gt;JoiningRoom -->
<g id="edge4" class="edge">
<title>WaitingSettingUid&#45;&gt;JoiningRoom</title>
<path fill="none" stroke="#000000" d="M79.7726,-371.5777C78.334,-360.7835 78.4191,-347.326 84.7038,-337.2 89.1728,-329.9994 95.5816,-324.1772 102.7329,-319.4876"/>
<polygon fill="#000000" stroke="#000000" points="104.485,-322.5175 111.3971,-314.4879 100.9864,-316.4545 104.485,-322.5175"/>
<text text-anchor="middle" x="149.1373" y="-341.4" font-family="Times,serif" font-size="14.00" fill="#000000">ApiEvent::UpdateUser</text>
</g>
<!-- JoiningRoom&#45;&gt;TitleScreen -->
<g id="edge6" class="edge">
<title>JoiningRoom&#45;&gt;TitleScreen</title>
<path fill="none" stroke="#000000" d="M191.1992,-315.9582C199.8668,-321.3078 208.0381,-328.2931 212.9928,-337.2 261.1709,-423.8078 247.8769,-471.1466 203.9928,-560.0073 201.6809,-564.6886 198.4508,-568.9883 194.7886,-572.8609"/>
<polygon fill="#000000" stroke="#000000" points="192.2921,-570.4027 187.3413,-579.7697 197.0528,-575.5346 192.2921,-570.4027"/>
<text text-anchor="middle" x="283.6576" y="-430.2" font-family="Times,serif" font-size="14.00" fill="#000000">join&#45;room失敗</text>
</g>
<!-- WaitingInRoom -->
<g id="node5" class="node">
<title>WaitingInRoom</title>
<ellipse fill="#cfecff" stroke="#000000" cx="154.9928" cy="-212.4" rx="73.5984" ry="18"/>
<text text-anchor="middle" x="154.9928" y="-208.2" font-family="HackGen, Consolas, monospace" font-size="14.00" fill="#000000">WaitingInRoom</text>
</g>
<!-- JoiningRoom&#45;&gt;WaitingInRoom -->
<g id="edge5" class="edge">
<title>JoiningRoom&#45;&gt;WaitingInRoom</title>
<path fill="none" stroke="#000000" d="M154.9928,-282.8006C154.9928,-270.6949 154.9928,-254.6076 154.9928,-240.8674"/>
<polygon fill="#000000" stroke="#000000" points="158.4929,-240.472 154.9928,-230.472 151.4929,-240.4721 158.4929,-240.472"/>
<text text-anchor="middle" x="193.4893" y="-252.6" font-family="Times,serif" font-size="14.00" fill="#000000">join&#45;room成功</text>
</g>
<!-- Playing -->
<g id="node6" class="node">
<title>Playing</title>
<ellipse fill="#cfecff" stroke="#000000" cx="42.9928" cy="-106.8" rx="40.5886" ry="18"/>
<text text-anchor="middle" x="42.9928" y="-102.6" font-family="HackGen, Consolas, monospace" font-size="14.00" fill="#000000">Playing</text>
</g>
<!-- WaitingInRoom&#45;&gt;Playing -->
<g id="edge7" class="edge">
<title>WaitingInRoom&#45;&gt;Playing</title>
<path fill="none" stroke="#000000" d="M113.6733,-197.276C102.5556,-191.868 91.128,-184.9441 82.1162,-176.4 69.6931,-164.6218 60.1512,-148.0096 53.6017,-133.9687"/>
<polygon fill="#000000" stroke="#000000" points="56.7769,-132.4944 49.5469,-124.7498 50.3693,-135.3127 56.7769,-132.4944"/>
<text text-anchor="middle" x="168.9311" y="-163.8" font-family="Times,serif" font-size="14.00" fill="#000000">ApiEvent::RoomStateFulfilled</text>
<text text-anchor="middle" x="168.9311" y="-147" font-family="Times,serif" font-size="14.00" fill="#000000">{should_start=true}</text>
</g>
<!-- Playing&#45;&gt;Playing -->
<g id="edge8" class="edge">
<title>Playing&#45;&gt;Playing</title>
<path fill="none" stroke="#000000" d="M79.2967,-115.0495C91.6266,-115.0928 101.5371,-112.343 101.5371,-106.8 101.5371,-102.9026 96.6375,-100.3861 89.4423,-99.2505"/>
<polygon fill="#000000" stroke="#000000" points="89.5139,-95.7472 79.2967,-98.5505 89.032,-102.7306 89.5139,-95.7472"/>
<text text-anchor="middle" x="166.8576" y="-102.6" font-family="Times,serif" font-size="14.00" fill="#000000">ApiEvent::UpdateField</text>
</g>
<!-- GameFinished -->
<g id="node7" class="node">
<title>GameFinished</title>
<ellipse fill="#cfecff" stroke="#000000" cx="155.9928" cy="-18" rx="101.6528" ry="18"/>
<text text-anchor="middle" x="155.9928" y="-13.8" font-family="HackGen, Consolas, monospace" font-size="14.00" fill="#000000">GameFinished{reason}</text>
</g>
<!-- Playing&#45;&gt;GameFinished -->
<g id="edge9" class="edge">
<title>Playing&#45;&gt;GameFinished</title>
<path fill="none" stroke="#000000" d="M63.1949,-90.9243C80.5255,-77.3053 105.7576,-57.4768 125.5378,-41.9328"/>
<polygon fill="#000000" stroke="#000000" points="127.9422,-44.4947 133.6423,-35.5639 123.617,-38.9908 127.9422,-44.4947"/>
<text text-anchor="middle" x="181.5356" y="-58.2" font-family="Times,serif" font-size="14.00" fill="#000000">ApiEvent::GameFinished</text>
</g>
<!-- GameFinished&#45;&gt;WaitingInRoom -->
<g id="edge10" class="edge">
<title>GameFinished&#45;&gt;WaitingInRoom</title>
<path fill="none" stroke="#000000" d="M213.1739,-32.9165C231.5778,-38.9517 248.6241,-46.3084 253.9928,-54 285.129,-98.6083 285.2019,-131.8427 253.9928,-176.4 248.9025,-183.6674 233.4483,-190.5976 216.218,-196.4021"/>
<polygon fill="#000000" stroke="#000000" points="214.9751,-193.1249 206.5174,-199.506 217.1084,-199.7919 214.9751,-193.1249"/>
<text text-anchor="middle" x="324.3755" y="-102.6" font-family="Times,serif" font-size="14.00" fill="#000000">スペースキー</text>
</g>
<!-- GameFinished&#45;&gt;GameFinished -->
<g id="edge11" class="edge">
<title>GameFinished&#45;&gt;GameFinished</title>
<path fill="none" stroke="#000000" d="M247.9307,-25.7661C264.3501,-24.7567 275.8191,-22.168 275.8191,-18 275.8191,-14.7438 268.819,-12.4515 257.927,-11.1231"/>
<polygon fill="#000000" stroke="#000000" points="258.2015,-7.6337 247.9307,-10.2339 257.5812,-14.6062 258.2015,-7.6337"/>
<text text-anchor="middle" x="371.976" y="-13.8" font-family="Times,serif" font-size="14.00" fill="#000000">ApiEvent::RoomStateFulfilled{..}</text>
</g>
<!-- Quit -->
<g id="node8" class="node">
<title>Quit</title>
<ellipse fill="#17a6ff" stroke="#000000" cx="286.9928" cy="-493.0037" rx="28.3832" ry="28.3832"/>
<ellipse fill="none" stroke="#000000" cx="286.9928" cy="-493.0037" rx="32.4086" ry="32.4086"/>
<text text-anchor="middle" x="286.9928" y="-488.8037" font-family="HackGen, Consolas, monospace" font-size="14.00" fill="#ffffff">Quit</text>
</g>
<!-- any -->
<g id="node9" class="node">
<title>any</title>
<ellipse fill="#cfecff" stroke="#000000" cx="286.9928" cy="-596.0073" rx="27" ry="18"/>
<text text-anchor="middle" x="286.9928" y="-591.8073" font-family="HackGen, Consolas, monospace" font-size="14.00" fill="#000000">*</text>
</g>
<!-- any&#45;&gt;Quit -->
<g id="edge12" class="edge">
<title>any&#45;&gt;Quit</title>
<path fill="none" stroke="#000000" d="M286.9928,-577.5923C286.9928,-565.9513 286.9928,-550.3992 286.9928,-535.8066"/>
<polygon fill="#000000" stroke="#000000" points="290.4929,-535.4201 286.9928,-525.4202 283.4929,-535.4202 290.4929,-535.4201"/>
<text text-anchor="middle" x="310.7753" y="-547.4073" font-family="Times,serif" font-size="14.00" fill="#000000">Alt + F4</text>
</g>
</g>
</svg>
