<?xml version="1.0" encoding="UTF-8" standalone="no"?>
<!DOCTYPE svg PUBLIC "-//W3C//DTD SVG 1.1//EN"
 "http://www.w3.org/Graphics/SVG/1.1/DTD/svg11.dtd">
<!-- Generated by graphviz version 2.40.1 (20161225.0304)
 -->
<!-- Title: ClientState Pages: 1 -->
<svg width="646pt" height="719pt"
 viewBox="0.00 0.00 645.70 718.81" xmlns="http://www.w3.org/2000/svg" xmlns:xlink="http://www.w3.org/1999/xlink">
<g id="graph0" class="graph" transform="scale(1 1) rotate(0) translate(4 714.8073)">
<title>ClientState</title>
<polygon fill="#ffffff" stroke="transparent" points="-4,4 -4,-714.8073 641.7,-714.8073 641.7,4 -4,4"/>
<text text-anchor="middle" x="318.85" y="-694.2073" font-family="Times,serif" font-size="14.00" fill="#000000">ClientState 遷移図 (2021年11月8日)</text>
<!-- TitleScreen -->
<g id="node1" class="node">
<title>TitleScreen</title>
<ellipse fill="#17a6ff" stroke="#ffffff" cx="130.35" cy="-668.0073" rx="55.5908" ry="18"/>
<text text-anchor="middle" x="130.35" y="-663.8073" font-family="HackGen, Consolas, monospace" font-size="14.00" fill="#ffffff">TitleScreen</text>
</g>
<!-- SettingConnection -->
<g id="node2" class="node">
<title>SettingConnection</title>
<ellipse fill="#cfecff" stroke="#ffffff" cx="130.35" cy="-579.2073" rx="82.8457" ry="18"/>
<text text-anchor="middle" x="130.35" y="-575.0073" font-family="HackGen, Consolas, monospace" font-size="14.00" fill="#000000">SettingConnection</text>
</g>
<!-- TitleScreen&#45;&gt;SettingConnection -->
<g id="edge1" class="edge">
<title>TitleScreen&#45;&gt;SettingConnection</title>
<path fill="none" stroke="#000000" d="M96.0837,-653.8359C87.1643,-648.3919 78.6458,-641.2103 73.5846,-632.0073 67.1028,-620.2213 74.3326,-609.5907 85.5564,-601.0097"/>
<polygon fill="#000000" stroke="#000000" points="87.5201,-603.907 93.8453,-595.4074 83.6003,-598.1074 87.5201,-603.907"/>
<text text-anchor="middle" x="120.7327" y="-619.4073" font-family="Times,serif" font-size="14.00" fill="#000000">スペースキー</text>
</g>
<!-- SettingConnection&#45;&gt;TitleScreen -->
<g id="edge2" class="edge">
<title>SettingConnection&#45;&gt;TitleScreen</title>
<path fill="none" stroke="#000000" d="M153.3926,-596.7067C163.3329,-606.5121 171.6147,-619.2972 166.35,-632.0073 164.6757,-636.0495 162.3029,-639.8745 159.5643,-643.4151"/>
<polygon fill="#000000" stroke="#000000" points="156.7235,-641.3413 152.6671,-651.1289 161.9417,-646.0071 156.7235,-641.3413"/>
<text text-anchor="middle" x="192.6886" y="-619.4073" font-family="Times,serif" font-size="14.00" fill="#000000">接続失敗</text>
</g>
<!-- WaitingSettingUid -->
<g id="node3" class="node">
<title>WaitingSettingUid</title>
<ellipse fill="#cfecff" stroke="#ffffff" cx="130.35" cy="-490.4073" rx="83.9856" ry="18"/>
<text text-anchor="middle" x="130.35" y="-486.2073" font-family="HackGen, Consolas, monospace" font-size="14.00" fill="#000000">WaitingSettingUid</text>
</g>
<!-- SettingConnection&#45;&gt;WaitingSettingUid -->
<g id="edge3" class="edge">
<title>SettingConnection&#45;&gt;WaitingSettingUid</title>
<path fill="none" stroke="#000000" d="M130.35,-560.8079C130.35,-548.7022 130.35,-532.6149 130.35,-518.8747"/>
<polygon fill="#000000" stroke="#000000" points="133.8501,-518.4793 130.35,-508.4793 126.8501,-518.4794 133.8501,-518.4793"/>
<text text-anchor="middle" x="187.113" y="-530.6073" font-family="Times,serif" font-size="14.00" fill="#000000">connect &amp; setup&#45;uid</text>
</g>
<!-- JoiningRoom0 -->
<g id="node4" class="node">
<title>JoiningRoom0</title>
<ellipse fill="#cfecff" stroke="#ffffff" cx="130.35" cy="-401.6073" rx="130.2002" ry="18"/>
<text text-anchor="middle" x="130.35" y="-397.4073" font-family="HackGen, Consolas, monospace" font-size="14.00" fill="#000000">JoiningRoom{wait_frames=0}</text>
</g>
<!-- WaitingSettingUid&#45;&gt;JoiningRoom0 -->
<g id="edge4" class="edge">
<title>WaitingSettingUid&#45;&gt;JoiningRoom0</title>
<path fill="none" stroke="#000000" d="M130.35,-472.0079C130.35,-459.9022 130.35,-443.8149 130.35,-430.0747"/>
<polygon fill="#000000" stroke="#000000" points="133.8501,-429.6793 130.35,-419.6793 126.8501,-429.6794 133.8501,-429.6793"/>
<text text-anchor="middle" x="194.4945" y="-441.8073" font-family="Times,serif" font-size="14.00" fill="#000000">ApiEvent::UpdateUser</text>
</g>
<!-- JoiningRoomN -->
<g id="node5" class="node">
<title>JoiningRoomN</title>
<ellipse fill="#cfecff" stroke="#ffffff" cx="507.35" cy="-401.6073" rx="130.2002" ry="18"/>
<text text-anchor="middle" x="507.35" y="-397.4073" font-family="HackGen, Consolas, monospace" font-size="14.00" fill="#000000">JoiningRoom{wait_frames&gt;0}</text>
</g>
<!-- JoiningRoom0&#45;&gt;JoiningRoomN -->
<g id="edge6" class="edge">
<title>JoiningRoom0&#45;&gt;JoiningRoomN</title>
<path fill="none" stroke="#000000" d="M215.4586,-387.8979C234.5857,-385.3637 254.8233,-383.108 273.7539,-381.8073 313.745,-379.0595 323.955,-379.0595 363.9461,-381.8073 379.623,-382.8845 396.1962,-384.6165 412.2928,-386.6193"/>
<polygon fill="#000000" stroke="#000000" points="411.8768,-390.0946 422.2414,-387.8979 412.7691,-383.1517 411.8768,-390.0946"/>
<text text-anchor="middle" x="318.85" y="-386.0073" font-family="Times,serif" font-size="14.00" fill="#000000">join&#45;roomが失敗</text>
</g>
<!-- WaitingInRoom -->
<g id="node6" class="node">
<title>WaitingInRoom</title>
<ellipse fill="#cfecff" stroke="#ffffff" cx="130.35" cy="-312.8073" rx="73.5984" ry="18"/>
<text text-anchor="middle" x="130.35" y="-308.6073" font-family="HackGen, Consolas, monospace" font-size="14.00" fill="#000000">WaitingInRoom</text>
</g>
<!-- JoiningRoom0&#45;&gt;WaitingInRoom -->
<g id="edge5" class="edge">
<title>JoiningRoom0&#45;&gt;WaitingInRoom</title>
<path fill="none" stroke="#000000" d="M130.35,-383.2079C130.35,-371.1022 130.35,-355.0149 130.35,-341.2747"/>
<polygon fill="#000000" stroke="#000000" points="133.8501,-340.8793 130.35,-330.8793 126.8501,-340.8794 133.8501,-340.8793"/>
<text text-anchor="middle" x="174.2778" y="-353.0073" font-family="Times,serif" font-size="14.00" fill="#000000">join&#45;roomが成功</text>
</g>
<!-- JoiningRoomN&#45;&gt;JoiningRoom0 -->
<g id="edge8" class="edge">
<title>JoiningRoomN&#45;&gt;JoiningRoom0</title>
<path fill="none" stroke="#000000" d="M376.9287,-401.6073C342.758,-401.6073 305.7654,-401.6073 271.0825,-401.6073"/>
<polygon fill="#000000" stroke="#000000" points="270.8841,-398.1074 260.884,-401.6073 270.884,-405.1074 270.8841,-398.1074"/>
<text text-anchor="middle" x="318.85" y="-408.8073" font-family="Times,serif" font-size="14.00" fill="#000000">wait_frames == 0</text>
</g>
<!-- JoiningRoomN&#45;&gt;JoiningRoomN -->
<g id="edge7" class="edge">
<title>JoiningRoomN:n&#45;&gt;JoiningRoomN:n</title>
<path fill="none" stroke="#000000" d="M507.35,-419.6073C516.35,-426.9407 516.35,-441.6073 507.35,-441.6073 501.1625,-441.6073 499.2289,-434.675 501.5492,-427.9594"/>
<polygon fill="#000000" stroke="#000000" points="504.5202,-429.8173 507.35,-419.6073 498.7708,-425.8241 504.5202,-429.8173"/>
<text text-anchor="middle" x="507.35" y="-462.6073" font-family="Times,serif" font-size="14.00" fill="#000000">wait_framesが0でない間</text>
<text text-anchor="middle" x="507.35" y="-445.8073" font-family="Times,serif" font-size="14.00" fill="#000000">wait_frames&#45;&#45;</text>
</g>
<!-- Playing -->
<g id="node7" class="node">
<title>Playing</title>
<ellipse fill="#cfecff" stroke="#ffffff" cx="130.35" cy="-224.0073" rx="40.5886" ry="18"/>
<text text-anchor="middle" x="130.35" y="-219.8073" font-family="HackGen, Consolas, monospace" font-size="14.00" fill="#000000">Playing</text>
</g>
<!-- WaitingInRoom&#45;&gt;Playing -->
<g id="edge9" class="edge">
<title>WaitingInRoom&#45;&gt;Playing</title>
<path fill="none" stroke="#000000" d="M130.35,-294.4079C130.35,-282.3022 130.35,-266.2149 130.35,-252.4747"/>
<polygon fill="#000000" stroke="#000000" points="133.8501,-252.0793 130.35,-242.0793 126.8501,-252.0794 133.8501,-252.0793"/>
<text text-anchor="middle" x="216.2883" y="-264.2073" font-family="Times,serif" font-size="14.00" fill="#000000">ApiEvent::RoomStateFulfilled</text>
</g>
<!-- Playing&#45;&gt;Playing -->
<g id="edge10" class="edge">
<title>Playing&#45;&gt;Playing</title>
<path fill="none" stroke="#000000" d="M166.6539,-232.2568C178.9838,-232.3001 188.8943,-229.5503 188.8943,-224.0073 188.8943,-220.1099 183.9947,-217.5934 176.7995,-216.4578"/>
<polygon fill="#000000" stroke="#000000" points="176.8711,-212.9545 166.6539,-215.7578 176.3892,-219.9379 176.8711,-212.9545"/>
<text text-anchor="middle" x="254.2148" y="-219.8073" font-family="Times,serif" font-size="14.00" fill="#000000">ApiEvent::UpdateField</text>
</g>
<!-- GameFinished -->
<g id="node8" class="node">
<title>GameFinished</title>
<ellipse fill="#cfecff" stroke="#ffffff" cx="130.35" cy="-135.2073" rx="101.6528" ry="18"/>
<text text-anchor="middle" x="130.35" y="-131.0073" font-family="HackGen, Consolas, monospace" font-size="14.00" fill="#000000">GameFinished{reason}</text>
</g>
<!-- Playing&#45;&gt;GameFinished -->
<g id="edge11" class="edge">
<title>Playing&#45;&gt;GameFinished</title>
<path fill="none" stroke="#000000" d="M130.35,-205.6079C130.35,-193.5022 130.35,-177.4149 130.35,-163.6747"/>
<polygon fill="#000000" stroke="#000000" points="133.8501,-163.2793 130.35,-153.2793 126.8501,-163.2794 133.8501,-163.2793"/>
<text text-anchor="middle" x="201.8928" y="-175.4073" font-family="Times,serif" font-size="14.00" fill="#000000">ApiEvent::GameFinished</text>
</g>
<!-- Quit -->
<g id="node9" class="node">
<title>Quit</title>
<ellipse fill="#17a6ff" stroke="#17a6ff" cx="130.35" cy="-32.2037" rx="28.3832" ry="28.3832"/>
<ellipse fill="none" stroke="#17a6ff" cx="130.35" cy="-32.2037" rx="32.4086" ry="32.4086"/>
<text text-anchor="middle" x="130.35" y="-28.0037" font-family="HackGen, Consolas, monospace" font-size="14.00" fill="#ffffff">Quit</text>
</g>
<!-- GameFinished&#45;&gt;Quit -->
<g id="edge12" class="edge">
<title>GameFinished&#45;&gt;Quit</title>
<path fill="none" stroke="#000000" d="M130.35,-116.7923C130.35,-105.1513 130.35,-89.5992 130.35,-75.0066"/>
<polygon fill="#000000" stroke="#000000" points="133.8501,-74.6201 130.35,-64.6202 126.8501,-74.6202 133.8501,-74.6201"/>
<text text-anchor="middle" x="217.1619" y="-86.6073" font-family="Times,serif" font-size="14.00" fill="#000000">勝敗を(コンソールに)表示</text>
</g>
</g>
</svg>
